<svg width="16" height="16" viewBox="0 0 16 16" fill="none" xmlns="http://www.w3.org/2000/svg">
<g clip-path="url(#clip0)">
<path d="M1.61133 0.251953H7.90625C9.15234 0.251953 10.0798 0.305664 10.6885 0.413086C11.3044 0.513346 11.8522 0.72819 12.332 1.05762C12.819 1.38704 13.2236 1.82747 13.5459 2.37891C13.8682 2.92318 14.0293 3.53548 14.0293 4.21582C14.0293 4.95345 13.8288 5.63021 13.4277 6.24609C13.0339 6.86198 12.4967 7.32389 11.8164 7.63184C12.776 7.91113 13.5137 8.38737 14.0293 9.06055C14.5449 9.73372 14.8027 10.5251 14.8027 11.4346C14.8027 12.1507 14.6344 12.849 14.2979 13.5293C13.9684 14.2025 13.5137 14.7432 12.9336 15.1514C12.3607 15.5524 11.6517 15.7995 10.8066 15.8926C10.2767 15.9499 8.99837 15.9857 6.97168 16H1.61133V0.251953ZM4.79102 2.87305V6.51465H6.875C8.11393 6.51465 8.88379 6.49674 9.18457 6.46094C9.72884 6.39648 10.1549 6.21029 10.4629 5.90234C10.778 5.58724 10.9355 5.17546 10.9355 4.66699C10.9355 4.18001 10.7995 3.78613 10.5273 3.48535C10.2624 3.17741 9.86491 2.99121 9.33496 2.92676C9.01986 2.89095 8.11393 2.87305 6.61719 2.87305H4.79102ZM4.79102 9.13574V13.3467H7.73438C8.88021 13.3467 9.6071 13.3145 9.91504 13.25C10.3877 13.1641 10.7708 12.9564 11.0645 12.627C11.3652 12.2904 11.5156 11.8428 11.5156 11.2842C11.5156 10.8115 11.401 10.4105 11.1719 10.0811C10.9427 9.75163 10.6097 9.51172 10.1729 9.36133C9.74316 9.21094 8.80501 9.13574 7.3584 9.13574H4.79102Z" fill="#4D4D4D"/>
</g>
<defs>
<clipPath id="clip0">
<rect width="16" height="16" fill="white"/>
</clipPath>
</defs>
</svg>
