<svg width="22" height="22" viewBox="0 0 22 22" fill="none" xmlns="http://www.w3.org/2000/svg">
<path fill-rule="evenodd" clip-rule="evenodd" d="M8.30926 15.6021L7.67871 13.9648H3.48828L2.3877 17H0.979492L4.82812 6.97852H6.25684L9.02427 13.7403L8.30926 15.6021ZM7.26855 12.8848H3.87109L4.97168 9.94531C5.2041 9.31185 5.38411 8.67383 5.51172 8.03125C5.66667 8.57357 5.90365 9.26628 6.22266 10.1094L7.26855 12.8848Z" fill="#4D4D4D"/>
<path d="M8.97363 17L13.9219 4.11523H15.7588L21.0322 17H19.0898L17.5869 13.0977H12.1992L10.7842 17H8.97363ZM12.6914 11.709H17.0596L15.7148 8.14062C15.3047 7.05664 15 6.16602 14.8008 5.46875C14.6367 6.29492 14.4053 7.11523 14.1064 7.92969L12.6914 11.709Z" fill="#4D4D4D"/>
</svg>
