<svg width="175" height="40" viewBox="0 0 175 40" fill="none" xmlns="http://www.w3.org/2000/svg">
<rect x="0.5" y="0.5" width="174" height="39" rx="19.5" fill="white"/>
<rect x="0.5" y="0.5" width="174" height="39" rx="19.5" stroke="#6E6E6E"/>
<path d="M27.4355 20.3496C27.4355 21.7428 27.2012 22.9603 26.7324 24.002C26.2637 25.0371 25.5996 25.8281 24.7402 26.375C23.8809 26.9219 22.8783 27.1953 21.7324 27.1953C20.6126 27.1953 19.6198 26.9219 18.7539 26.375C17.888 25.8216 17.2142 25.0371 16.7324 24.0215C16.2572 22.9993 16.013 21.8177 16 20.4766V19.4512C16 18.084 16.2376 16.8763 16.7129 15.8281C17.1882 14.7799 17.8587 13.9792 18.7246 13.4258C19.597 12.8659 20.5931 12.5859 21.7129 12.5859C22.8522 12.5859 23.8548 12.8626 24.7207 13.416C25.5931 13.9629 26.2637 14.7604 26.7324 15.8086C27.2012 16.8503 27.4355 18.0645 27.4355 19.4512V20.3496ZM25.5703 19.4316C25.5703 17.7454 25.2318 16.4531 24.5547 15.5547C23.8776 14.6497 22.9303 14.1973 21.7129 14.1973C20.528 14.1973 19.5938 14.6497 18.9102 15.5547C18.2331 16.4531 17.8848 17.7031 17.8652 19.3047V20.3496C17.8652 21.9837 18.207 23.2695 18.8906 24.207C19.5807 25.138 20.528 25.6035 21.7324 25.6035C22.9434 25.6035 23.8809 25.1641 24.5449 24.2852C25.209 23.3997 25.5508 22.1335 25.5703 20.4863V19.4316Z" fill="#3E3E39"/>
<path d="M38.8906 21.834C38.8906 23.4421 38.5228 24.7376 37.7871 25.7207C37.0514 26.7038 36.0553 27.1953 34.7988 27.1953C33.5163 27.1953 32.5072 26.7884 31.7715 25.9746V31.0625H29.9648V16.4336H31.6152L31.7031 17.6055C32.4388 16.694 33.4609 16.2383 34.7695 16.2383C36.0391 16.2383 37.0417 16.7168 37.7773 17.6738C38.5195 18.6309 38.8906 19.9622 38.8906 21.668V21.834ZM37.084 21.6289C37.084 20.4375 36.8301 19.4967 36.3223 18.8066C35.8145 18.1165 35.1178 17.7715 34.2324 17.7715C33.1387 17.7715 32.3184 18.2565 31.7715 19.2266V24.2754C32.3118 25.2389 33.1387 25.7207 34.252 25.7207C35.1178 25.7207 35.8047 25.3789 36.3125 24.6953C36.8268 24.0052 37.084 22.9831 37.084 21.6289Z" fill="#3E3E39"/>
<path d="M45.5801 27.1953C44.1478 27.1953 42.9824 26.7266 42.084 25.7891C41.1855 24.8451 40.7363 23.5853 40.7363 22.0098V21.6777C40.7363 20.6296 40.9349 19.6953 41.332 18.875C41.7357 18.0482 42.2956 17.4036 43.0117 16.9414C43.7344 16.4727 44.5156 16.2383 45.3555 16.2383C46.7292 16.2383 47.7969 16.6908 48.5586 17.5957C49.3203 18.5007 49.7012 19.7962 49.7012 21.4824V22.2344H42.543C42.569 23.276 42.8717 24.1191 43.4512 24.7637C44.0371 25.4017 44.7793 25.7207 45.6777 25.7207C46.3158 25.7207 46.8561 25.5905 47.2988 25.3301C47.7415 25.0697 48.1289 24.7246 48.4609 24.2949L49.5645 25.1543C48.679 26.515 47.3509 27.1953 45.5801 27.1953ZM45.3555 17.7227C44.6263 17.7227 44.0143 17.9896 43.5195 18.5234C43.0247 19.0508 42.7188 19.793 42.6016 20.75H47.8945V20.6133C47.8424 19.6953 47.5951 18.9857 47.1523 18.4844C46.7096 17.9766 46.1107 17.7227 45.3555 17.7227Z" fill="#3E3E39"/>
<path d="M53.5098 16.4336L53.5684 17.7617C54.3757 16.7461 55.4303 16.2383 56.7324 16.2383C58.9655 16.2383 60.0918 17.498 60.1113 20.0176V27H58.3047V20.0078C58.2982 19.2461 58.1224 18.6829 57.7773 18.3184C57.4388 17.9538 56.9082 17.7715 56.1855 17.7715C55.5996 17.7715 55.0853 17.9277 54.6426 18.2402C54.1999 18.5527 53.8548 18.9629 53.6074 19.4707V27H51.8008V16.4336H53.5098Z" fill="#3E3E39"/>
<path d="M69.7598 27H67.9531V16.4336H69.7598V27ZM67.8066 13.6309C67.8066 13.3379 67.8945 13.0905 68.0703 12.8887C68.2526 12.6868 68.5195 12.5859 68.8711 12.5859C69.2227 12.5859 69.4896 12.6868 69.6719 12.8887C69.8542 13.0905 69.9453 13.3379 69.9453 13.6309C69.9453 13.9238 69.8542 14.168 69.6719 14.3633C69.4896 14.5586 69.2227 14.6562 68.8711 14.6562C68.5195 14.6562 68.2526 14.5586 68.0703 14.3633C67.8945 14.168 67.8066 13.9238 67.8066 13.6309Z" fill="#3E3E39"/>
<path d="M74.3691 16.4336L74.4277 17.7617C75.235 16.7461 76.2897 16.2383 77.5918 16.2383C79.8249 16.2383 80.9512 17.498 80.9707 20.0176V27H79.1641V20.0078C79.1576 19.2461 78.9818 18.6829 78.6367 18.3184C78.2982 17.9538 77.7676 17.7715 77.0449 17.7715C76.459 17.7715 75.9447 17.9277 75.502 18.2402C75.0592 18.5527 74.7142 18.9629 74.4668 19.4707V27H72.6602V16.4336H74.3691Z" fill="#3E3E39"/>
<path d="M97.6016 21.834C97.6016 23.4486 97.2305 24.7474 96.4883 25.7305C95.7461 26.707 94.75 27.1953 93.5 27.1953C92.1654 27.1953 91.1335 26.7233 90.4043 25.7793L90.3164 27H88.6562V12H90.4629V17.5957C91.1921 16.6908 92.1979 16.2383 93.4805 16.2383C94.763 16.2383 95.7689 16.7233 96.498 17.6934C97.2337 18.6634 97.6016 19.9915 97.6016 21.6777V21.834ZM95.7949 21.6289C95.7949 20.3984 95.5573 19.4479 95.082 18.7773C94.6068 18.1068 93.9232 17.7715 93.0312 17.7715C91.8398 17.7715 90.9837 18.3249 90.4629 19.4316V24.002C91.0163 25.1087 91.8789 25.6621 93.0508 25.6621C93.9167 25.6621 94.5905 25.3268 95.0723 24.6562C95.554 23.9857 95.7949 22.9766 95.7949 21.6289Z" fill="#3E3E39"/>
<path d="M104.994 18.0547C104.721 18.0091 104.424 17.9863 104.105 17.9863C102.921 17.9863 102.117 18.4909 101.693 19.5V27H99.8867V16.4336H101.645L101.674 17.6543C102.266 16.7103 103.106 16.2383 104.193 16.2383C104.545 16.2383 104.812 16.2839 104.994 16.375V18.0547Z" fill="#3E3E39"/>
<path d="M105.99 21.6191C105.99 20.584 106.192 19.653 106.596 18.8262C107.006 17.9993 107.572 17.3613 108.295 16.9121C109.024 16.4629 109.854 16.2383 110.785 16.2383C112.224 16.2383 113.386 16.7363 114.271 17.7324C115.163 18.7285 115.609 20.0534 115.609 21.707V21.834C115.609 22.8626 115.411 23.7871 115.014 24.6074C114.623 25.4212 114.06 26.056 113.324 26.5117C112.595 26.9674 111.755 27.1953 110.805 27.1953C109.372 27.1953 108.21 26.6973 107.318 25.7012C106.433 24.7051 105.99 23.3867 105.99 21.7461V21.6191ZM107.807 21.834C107.807 23.0059 108.077 23.9466 108.617 24.6562C109.164 25.3659 109.893 25.7207 110.805 25.7207C111.723 25.7207 112.452 25.3626 112.992 24.6465C113.533 23.9238 113.803 22.9147 113.803 21.6191C113.803 20.4603 113.526 19.5228 112.973 18.8066C112.426 18.084 111.697 17.7227 110.785 17.7227C109.893 17.7227 109.174 18.0775 108.627 18.7871C108.08 19.4967 107.807 20.5124 107.807 21.834Z" fill="#3E3E39"/>
<path d="M127.23 24.5098L129.262 16.4336H131.068L127.992 27H126.527L123.959 18.9922L121.459 27H119.994L116.928 16.4336H118.725L120.805 24.3438L123.266 16.4336H124.721L127.23 24.5098Z" fill="#3E3E39"/>
<path d="M139.066 24.1973C139.066 23.709 138.881 23.3314 138.51 23.0645C138.145 22.791 137.504 22.5566 136.586 22.3613C135.674 22.166 134.949 21.9316 134.408 21.6582C133.874 21.3848 133.477 21.0592 133.217 20.6816C132.963 20.304 132.836 19.8548 132.836 19.334C132.836 18.4681 133.201 17.7357 133.93 17.1367C134.665 16.5378 135.603 16.2383 136.742 16.2383C137.94 16.2383 138.91 16.5475 139.652 17.166C140.401 17.7845 140.775 18.5755 140.775 19.5391H138.959C138.959 19.0443 138.747 18.6178 138.324 18.2598C137.908 17.9017 137.38 17.7227 136.742 17.7227C136.085 17.7227 135.57 17.8659 135.199 18.1523C134.828 18.4388 134.643 18.8132 134.643 19.2754C134.643 19.7116 134.815 20.0404 135.16 20.2617C135.505 20.4831 136.127 20.6947 137.025 20.8965C137.93 21.0983 138.663 21.3392 139.223 21.6191C139.783 21.8991 140.196 22.2376 140.463 22.6348C140.736 23.0254 140.873 23.5039 140.873 24.0703C140.873 25.0143 140.495 25.7728 139.74 26.3457C138.985 26.9121 138.005 27.1953 136.801 27.1953C135.954 27.1953 135.206 27.0456 134.555 26.7461C133.904 26.4466 133.393 26.0299 133.021 25.4961C132.657 24.9557 132.475 24.373 132.475 23.748H134.281C134.314 24.3535 134.555 24.8353 135.004 25.1934C135.46 25.5449 136.059 25.7207 136.801 25.7207C137.484 25.7207 138.031 25.584 138.441 25.3105C138.858 25.0306 139.066 24.6595 139.066 24.1973Z" fill="#3E3E39"/>
<path d="M147.611 27.1953C146.179 27.1953 145.014 26.7266 144.115 25.7891C143.217 24.8451 142.768 23.5853 142.768 22.0098V21.6777C142.768 20.6296 142.966 19.6953 143.363 18.875C143.767 18.0482 144.327 17.4036 145.043 16.9414C145.766 16.4727 146.547 16.2383 147.387 16.2383C148.76 16.2383 149.828 16.6908 150.59 17.5957C151.352 18.5007 151.732 19.7962 151.732 21.4824V22.2344H144.574C144.6 23.276 144.903 24.1191 145.482 24.7637C146.068 25.4017 146.811 25.7207 147.709 25.7207C148.347 25.7207 148.887 25.5905 149.33 25.3301C149.773 25.0697 150.16 24.7246 150.492 24.2949L151.596 25.1543C150.71 26.515 149.382 27.1953 147.611 27.1953ZM147.387 17.7227C146.658 17.7227 146.046 17.9896 145.551 18.5234C145.056 19.0508 144.75 19.793 144.633 20.75H149.926V20.6133C149.874 19.6953 149.626 18.9857 149.184 18.4844C148.741 17.9766 148.142 17.7227 147.387 17.7227Z" fill="#3E3E39"/>
<path d="M158.939 18.0547C158.666 18.0091 158.37 17.9863 158.051 17.9863C156.866 17.9863 156.062 18.4909 155.639 19.5V27H153.832V16.4336H155.59L155.619 17.6543C156.212 16.7103 157.051 16.2383 158.139 16.2383C158.49 16.2383 158.757 16.2839 158.939 16.375V18.0547Z" fill="#3E3E39"/>
</svg>
