<svg width="40" height="40" viewBox="0 0 40 40" fill="none" xmlns="http://www.w3.org/2000/svg">
<circle cx="20" cy="20" r="19.5" fill="white" stroke="#888888"/>
<path d="M19.9867 26C16.6667 26 13.9867 23.32 13.9867 20C13.9867 16.68 16.6667 14 19.9867 14C21.64 14 23.1333 14.6933 24.2133 15.7733L21.32 18.6667H27.9867V12L25.64 14.3467C24.1867 12.9067 22.2 12 19.9867 12C15.5733 12 12 15.5867 12 20C12 24.4133 15.5733 28 19.9867 28C23.9467 28 27.2267 25.12 27.8533 21.3333H25.8267C25.2133 24 22.84 26 19.9867 26Z" fill="#3E3E39"/>
</svg>
