<svg width="16" height="16" viewBox="0 0 16 16" fill="none" xmlns="http://www.w3.org/2000/svg">
<g clip-path="url(#clip0_6761_43110)">
<path d="M0.907227 10.7802C0.907227 9.47116 2.41773 8.41016 4.28073 8.41016C6.14373 8.41016 7.65423 9.47116 7.65423 10.7802" stroke="#3E3A39" stroke-miterlimit="10" stroke-linejoin="round"/>
<path d="M4.27998 7.23769C5.57315 7.23769 6.62148 6.18936 6.62148 4.89619C6.62148 3.60301 5.57315 2.55469 4.27998 2.55469C2.9868 2.55469 1.93848 3.60301 1.93848 4.89619C1.93848 6.18936 2.9868 7.23769 4.27998 7.23769Z" stroke="#3E3A39" stroke-miterlimit="10" stroke-linejoin="round"/>
<path d="M8.34668 13.4442C8.34668 12.1352 9.85718 11.0742 11.7202 11.0742C13.5832 11.0742 15.0937 12.1352 15.0937 13.4442" stroke="#3E3A39" stroke-miterlimit="10" stroke-linejoin="round"/>
<path d="M11.7199 9.90175C13.0131 9.90175 14.0614 8.85343 14.0614 7.56025C14.0614 6.26708 13.0131 5.21875 11.7199 5.21875C10.4267 5.21875 9.37842 6.26708 9.37842 7.56025C9.37842 8.85343 10.4267 9.90175 11.7199 9.90175Z" stroke="#3E3A39" stroke-miterlimit="10" stroke-linejoin="round"/>
</g>
<defs>
<clipPath id="clip0_6761_43110">
<rect width="16" height="16" fill="white"/>
</clipPath>
</defs>
</svg>
