<svg xmlns="http://www.w3.org/2000/svg" viewBox="0 0 16 16"><defs><style>.cls-1{fill:#fff;opacity:0;}.cls-2{fill:gray;}</style></defs><title>question_mark</title><g id="Layer_2" data-name="Layer 2"><g id="question_mark"><rect id="dont_crop" data-name="dont crop" class="cls-1" width="16" height="16"/><path class="cls-2" d="M7,12.13c0-.26,0-.46,0-.58a5.53,5.53,0,0,1,.32-2A4.61,4.61,0,0,1,8.1,8.33,13.15,13.15,0,0,1,9.49,7a6.77,6.77,0,0,0,1.3-1.41,2.27,2.27,0,0,0,.3-1.15,2.67,2.67,0,0,0-.88-2,3,3,0,0,0-2.16-.85A2.92,2.92,0,0,0,6,2.36,4.08,4.08,0,0,0,4.91,4.78l-2-.24a5.11,5.11,0,0,1,1.6-3.37A5.09,5.09,0,0,1,8,0,5.22,5.22,0,0,1,11.7,1.26a3.93,3.93,0,0,1,1.38,3,3.87,3.87,0,0,1-.49,1.9A8.9,8.9,0,0,1,10.7,8.31,9.06,9.06,0,0,0,9.47,9.54a2.73,2.73,0,0,0-.43.91,7.63,7.63,0,0,0-.16,1.68ZM6.91,16V13.8h2.2V16Z"/></g></g></svg>