<?xml version="1.0" encoding="UTF-8" standalone="no"?>
<!-- Generator: Adobe Illustrator 19.0.0, SVG Export Plug-In . SVG Version: 6.00 Build 0)  -->

<svg
   xmlns:dc="http://purl.org/dc/elements/1.1/"
   xmlns:cc="http://creativecommons.org/ns#"
   xmlns:rdf="http://www.w3.org/1999/02/22-rdf-syntax-ns#"
   xmlns:svg="http://www.w3.org/2000/svg"
   xmlns="http://www.w3.org/2000/svg"
   xmlns:sodipodi="http://sodipodi.sourceforge.net/DTD/sodipodi-0.dtd"
   xmlns:inkscape="http://www.inkscape.org/namespaces/inkscape"
   version="1.1"
   id="Ebene_1"
   x="0px"
   y="0px"
   viewBox="0 0 32 32"
   style="enable-background:new 0 0 32 32;"
   xml:space="preserve"
   sodipodi:docname="background_learner_component.svg"
   inkscape:version="0.92.3 (2405546, 2018-03-11)"
   inkscape:export-filename="/home/hornm/dev-knime/workspace/knime-workbench/org.knime.workbench.editor/icons/node/background_learner_component.png"
   inkscape:export-xdpi="96"
   inkscape:export-ydpi="96"><metadata
   id="metadata10"><rdf:RDF><cc:Work
       rdf:about=""><dc:format>image/svg+xml</dc:format><dc:type
         rdf:resource="http://purl.org/dc/dcmitype/StillImage" /><dc:title /></cc:Work></rdf:RDF></metadata><defs
   id="defs8" /><sodipodi:namedview
   pagecolor="#ffffff"
   bordercolor="#666666"
   borderopacity="1"
   objecttolerance="10"
   gridtolerance="10"
   guidetolerance="10"
   inkscape:pageopacity="0"
   inkscape:pageshadow="2"
   inkscape:window-width="1024"
   inkscape:window-height="1088"
   id="namedview6"
   showgrid="false"
   inkscape:zoom="7.375"
   inkscape:cx="-4.2711868"
   inkscape:cy="16"
   inkscape:window-x="1024"
   inkscape:window-y="27"
   inkscape:window-maximized="0"
   inkscape:current-layer="Ebene_1" />
<style
   type="text/css"
   id="style2">
	.st0{fill:#C3D03B;enable-background:new    ;}
</style>
<path
   inkscape:connector-curvature="0"
   id="XMLID_1_-8"
   class="st0"
   d="M 5.0000003e-8,29.247293 V 2.8472924 C 5.0000003e-8,1.3472934 1.3000001,0.04729345 2.8000001,0.04729345 H 29.1 c 1.6,0 2.9,1.29999995 2.9,2.79999895 V 29.147293 c 0,1.6 -1.3,2.8 -2.8,2.8 H 2.8000001 c -1.5,0.1 -2.800000049999997,-1.2 -2.800000049999997,-2.7 z"
   style="fill:#9b9b9b;enable-background:new;fill-opacity:1" /><path
   id="XMLID_1_"
   class="st0"
   d="M 4,25.964925 V 6.1062258 C 4,4.9778906 4.975,4.0000001 6.1,4.0000001 h 19.725 c 1.2,0 2.175,0.9778905 2.175,2.1062257 V 25.889702 c 0,1.203558 -0.975,2.106226 -2.1,2.106226 H 6.1 C 4.975,28.071151 4,27.09326 4,25.964925 Z"
   inkscape:connector-curvature="0"
   style="fill:#c8e632;fill-opacity:1;stroke-width:0.75111091;enable-background:new" />
<path
   inkscape:connector-curvature="0"
   id="XMLID_1_-7"
   class="st0"
   d="M -1.2711865e-8,29.247293 V 2.8472942 C -1.2711865e-8,1.3472942 1.3,0.04729325 2.8,0.04729325 h 26.3 c 1.6,0 2.9,1.30000095 2.9,2.80000095 V 29.147293 c 0,1.6 -1.3,2.800001 -2.8,2.800001 H 2.8 C 1.3,32.047294 -1.2711865e-8,30.747293 -1.2711865e-8,29.247293 Z"
   style="fill:none;enable-background:new;stroke:#000000;stroke-opacity:0" /></svg>